<?xml version="1.0" encoding="UTF-8"?>
<svg xmlns="http://www.w3.org/2000/svg" version="1.1" viewBox="0 0 317.5 125">
  <defs>
    <style>
      .cls-1 {
        fill: #fbba00;
      }

      .cls-2 {
        fill: #009dc9;
      }

      .cls-3 {
        fill: #e50059;
      }
    </style>
  </defs>
  <!-- Generator: Adobe Illustrator 28.7.0, SVG Export Plug-In . SVG Version: 1.2.0 Build 136)  -->
  <g>
    <g id="Layer_1">
      <g>
        <path class="cls-2" d="M119.1,37.7h-1.8v-20.3h1.8v20.3ZM117,11.8c0-1.2.4-1.8,1.2-1.8s.7.2.9.5.3.8.3,1.3-.1,1-.3,1.3c-.2.3-.5.5-.9.5-.8,0-1.2-.6-1.2-1.8"/>
        <path class="cls-2" d="M140,37.8v-13.2c0-2-.4-3.5-1.3-4.4s-2.2-1.4-4-1.4-4.2.6-5.3,1.8c-1.1,1.2-1.7,3.2-1.7,6v11.2h-1.8v-20.3h1.6l.4,2.8h.1c1.3-2.1,3.7-3.2,7-3.2s6.9,2.5,6.9,7.4v13.3h-1.8Z"/>
        <path class="cls-2" d="M156,19.1h-4.8v18.7h-1.8v-18.7h-3.8v-1.1l3.8-.7v-1.6c0-2.5.5-4.3,1.4-5.5.9-1.2,2.4-1.7,4.5-1.7s2.2.2,3.4.5l-.4,1.6c-1-.3-2-.5-3-.5-1.4,0-2.5.4-3.1,1.3s-.9,2.2-.9,4.1v1.9h4.8v1.6h0Z"/>
        <path class="cls-2" d="M160.7,27.6c0,2.8.6,5,1.8,6.5s3,2.3,5.2,2.3,4-.8,5.2-2.3,1.8-3.7,1.8-6.5-.6-5-1.9-6.5-3-2.3-5.2-2.3-4,.8-5.2,2.3c-1.2,1.5-1.8,3.7-1.8,6.5M176.7,27.6c0,3.3-.8,5.9-2.4,7.8s-3.8,2.8-6.6,2.8-3.4-.4-4.7-1.3-2.4-2.1-3.1-3.7-1.1-3.5-1.1-5.6c0-3.3.8-5.9,2.4-7.7,1.6-1.9,3.8-2.8,6.6-2.8s5,.9,6.6,2.8c1.6,1.9,2.4,4.4,2.4,7.7"/>
        <path class="cls-2" d="M190.3,17.1c.9,0,1.8,0,2.8.3l-.4,1.8c-.8-.2-1.7-.3-2.6-.3-1.7,0-3.1.7-4.3,2.2s-1.7,3.3-1.7,5.6v11.2h-1.9v-20.3h1.6l.2,3.7h.1c.8-1.5,1.7-2.5,2.7-3.1.9-.6,2.1-.9,3.4-.9"/>
        <path class="cls-2" d="M222.5,37.8v-13.3c0-2-.4-3.4-1.2-4.3s-1.9-1.4-3.6-1.4-3.6.6-4.6,1.7c-1,1.1-1.5,2.9-1.5,5.4v11.9h-1.9v-13.9c0-3.4-1.6-5.1-4.7-5.1s-3.7.6-4.6,1.9-1.5,3.2-1.5,5.9v11.2h-1.8v-20.3h1.5l.4,2.8h.1c.6-1,1.4-1.8,2.4-2.3s2.2-.8,3.4-.8c3.2,0,5.2,1.2,6.2,3.6h0c.7-1.2,1.6-2.1,2.7-2.7s2.4-.9,3.8-.9c2.2,0,3.9.6,5,1.8,1.1,1.2,1.7,3.1,1.7,5.6v13.3h-1.8Z"/>
        <path class="cls-2" d="M235.8,36.4c2.2,0,3.9-.6,5.1-1.9s1.9-3,1.9-5.2v-2h-3.6c-2.9.3-4.9.7-6.1,1.5-1.2.8-1.8,1.9-1.8,3.5s.4,2.3,1.2,3c.8.7,1.9,1.1,3.3,1.1M243.3,37.8l-.5-3.2h-.1c-1,1.3-2.1,2.2-3.1,2.8-1.1.5-2.4.8-3.8.8s-3.5-.5-4.6-1.5-1.7-2.4-1.7-4.2.8-3.5,2.5-4.6c1.6-1.1,4-1.7,7.2-1.7h3.9v-1.5c0-1.9-.4-3.4-1.2-4.4-.8-1-2.1-1.5-3.8-1.5s-3.8.5-5.8,1.6l-.7-1.6c2.2-1,4.4-1.6,6.6-1.6s3.9.6,5,1.7,1.6,3,1.6,5.4v13.5h-1.4Z"/>
        <path class="cls-2" d="M256.5,36.5c1.2,0,2.2-.1,3.1-.3v1.5c-.9.3-1.9.4-3.1.4-1.8,0-3.1-.5-4-1.4s-1.3-2.5-1.3-4.5v-13.1h-3v-1.1l3-.8.9-4.6h.9v4.9h5.9v1.6h-5.9v12.8c0,1.6.3,2.7.8,3.4.6.7,1.4,1.1,2.6,1.1"/>
        <path class="cls-2" d="M265.8,37.7h-1.9v-20.3h1.9v20.3ZM263.7,11.8c0-1.2.4-1.8,1.2-1.8s.7.2.9.5c.2.3.3.8.3,1.3s-.1,1-.3,1.3c-.2.3-.5.5-.9.5-.8,0-1.2-.6-1.2-1.8"/>
        <path class="cls-2" d="M280.7,38.1c-2.9,0-5.2-.9-6.8-2.8s-2.5-4.4-2.5-7.6.9-6,2.6-7.9c1.7-1.9,4-2.8,7-2.8s3.4.3,5,.9l-.5,1.6c-1.8-.6-3.3-.9-4.6-.9-2.5,0-4.4.8-5.6,2.3s-1.9,3.8-1.9,6.6.6,4.9,1.9,6.4c1.3,1.6,3.1,2.3,5.4,2.3s3.6-.3,5.1-1v1.7c-1.3.6-3,.9-5.1.9"/>
        <path class="cls-2" d="M295.6,36.4c2.2,0,3.9-.6,5.1-1.9s1.9-3,1.9-5.2v-2h-3.5c-2.9.3-4.9.7-6.1,1.5-1.2.8-1.8,1.9-1.8,3.5s.4,2.3,1.2,3c.8.7,1.9,1.1,3.3,1.1M303.1,37.8l-.5-3.2h-.1c-1,1.3-2.1,2.2-3.1,2.8-1.1.5-2.4.8-3.8.8s-3.5-.5-4.6-1.5-1.7-2.4-1.7-4.2.8-3.5,2.5-4.6c1.6-1.1,4-1.7,7.2-1.7h3.9v-1.5c0-1.9-.4-3.4-1.2-4.4-.8-1-2-1.5-3.8-1.5s-3.8.5-5.8,1.6l-.7-1.6c2.2-1,4.4-1.6,6.6-1.6s3.9.6,5,1.7c1.1,1.2,1.6,3,1.6,5.4v13.5h-1.3Z"/>
        <path class="cls-1" d="M120.3,65.6c0,4.8,1.8,7.1,5.3,7.1s5.2-2.4,5.2-7.1-1.8-7.1-5.3-7.1-3.2.6-4,1.8c-.8,1.2-1.2,3-1.2,5.2M135.3,65.6c0,3.4-.9,6-2.6,7.9-1.7,1.9-4.1,2.8-7.2,2.8s-3.6-.4-5.1-1.3c-1.5-.9-2.6-2.1-3.4-3.8-.8-1.6-1.2-3.5-1.2-5.7,0-3.4.9-6,2.6-7.8,1.7-1.9,4.1-2.8,7.3-2.8s5.3,1,7.1,2.9c1.7,1.9,2.6,4.5,2.6,7.8"/>
      </g>
      <rect class="cls-1" x="140.3" y="46.9" width="4.4" height="29"/>
      <path class="cls-1" d="M147.9,55.3h4.8l4.2,11.7c.6,1.7,1.1,3.2,1.3,4.7h.2c.1-.7.3-1.5.6-2.5.3-1,1.9-5.6,4.7-13.9h4.7l-8.8,23.4c-1.6,4.3-4.3,6.4-8,6.4s-1.9-.1-2.8-.3v-3.5c.7.1,1.4.2,2.3.2,2.1,0,3.6-1.2,4.5-3.7l.8-1.9-8.3-20.6Z"/>
      <path class="cls-1" d="M188.9,76h-4.4v-12.7c0-1.6-.3-2.8-.9-3.5-.6-.8-1.5-1.2-2.8-1.2s-2.9.6-3.7,1.6c-.8,1.1-1.2,2.9-1.2,5.5v10.3h-4.4v-20.6h3.4l.6,2.7h.2c.6-1,1.4-1.7,2.5-2.3,1.1-.5,2.3-.8,3.6-.8,3.2,0,5.3,1.1,6.3,3.2h.3c.6-1,1.5-1.8,2.6-2.4,1.1-.6,2.4-.9,3.8-.9,2.5,0,4.3.6,5.4,1.9,1.1,1.2,1.7,3.1,1.7,5.7v13.5h-4.4v-12.7c0-1.6-.3-2.8-.9-3.5-.6-.8-1.5-1.2-2.8-1.2s-2.9.5-3.7,1.6c-.8,1.1-1.2,2.7-1.2,4.9v10.9h0Z"/>
      <path class="cls-1" d="M217.5,58.5c-1.7,0-3,.5-3.8,1.5-.8,1-1.2,2.6-1.2,4.9v.6c0,2.5.4,4.3,1.2,5.5.8,1.1,2.1,1.7,3.9,1.7s2.7-.6,3.5-1.9c.8-1.2,1.2-3,1.2-5.3s-.4-4.1-1.2-5.2c-.8-1.2-2-1.8-3.6-1.8M218.5,76.4c-2.6,0-4.6-.9-6.1-2.8h-.3c.2,1.7.3,2.8.3,3.2v8.5h-4.4v-29.8h3.6c.1.4.3,1.3.6,2.8h.2c1.4-2.1,3.4-3.1,6.2-3.1s4.6.9,6,2.8c1.4,1.9,2.2,4.5,2.2,7.9s-.7,6-2.2,7.9c-1.5,1.9-3.5,2.8-6.1,2.8"/>
      <path class="cls-1" d="M236.3,76h-4.4v-20.6h4.4v20.6ZM231.6,49.9c0-.8.2-1.4.6-1.8s1-.6,1.8-.6,1.4.2,1.8.6c.4.4.6,1,.6,1.8s-.2,1.3-.6,1.8c-.4.4-1,.6-1.8.6s-1.4-.2-1.8-.6c-.4-.4-.6-1-.6-1.8"/>
      <path class="cls-1" d="M248.9,73c1.6,0,2.9-.4,3.8-1.3,1-.9,1.4-2.1,1.4-3.7v-1.8h-2.6c-2.1.2-3.6.5-4.5,1.1-.9.6-1.4,1.6-1.4,2.8s.3,1.6.8,2.1c.5.5,1.4.7,2.5.7M255.4,76l-.9-2.9h-.1c-1,1.3-2,2.1-3,2.6-1,.4-2.3.7-3.9.7s-3.6-.6-4.8-1.6c-1.1-1.1-1.7-2.6-1.7-4.6s.8-3.7,2.4-4.8c1.6-1.1,4-1.7,7.2-1.8h3.6v-1.2c0-1.3-.3-2.3-.9-3s-1.6-1-2.9-1-2.1.2-3,.5c-1,.3-1.9.7-2.8,1.1l-1.4-3.1c1.1-.6,2.3-1,3.7-1.3,1.3-.3,2.6-.5,3.8-.5,2.6,0,4.6.6,5.9,1.7,1.3,1.1,2,2.9,2,5.4v13.9h-3.1Z"/>
      <path class="cls-1" d="M272.8,72.8c1.8,0,3.1-.5,3.9-1.5.8-1,1.2-2.7,1.3-4.9v-.6c0-2.6-.4-4.4-1.3-5.5-.9-1.1-2.2-1.6-4-1.6s-2.7.6-3.6,1.9c-.8,1.2-1.2,3-1.2,5.4s.4,4,1.2,5.2c.8,1.2,2,1.8,3.6,1.8M271.7,76.4c-2.6,0-4.6-.9-6-2.8-1.4-1.9-2.2-4.5-2.2-7.9s.7-6,2.2-7.9c1.5-1.9,3.5-2.8,6.1-2.8s4.8,1,6.2,3h.2c-.2-1.5-.3-2.6-.3-3.5v-7.5h4.4v29h-3.4l-.8-2.7h-.2c-1.4,2.1-3.5,3.1-6.2,3.1"/>
      <path class="cls-1" d="M296.7,58.3c-1.4,0-2.5.4-3.4,1.3-.8.9-1.3,2.2-1.5,3.9h9.4c0-1.7-.4-3-1.2-3.9-.8-.9-1.9-1.3-3.3-1.3M297.5,76.4c-3.2,0-5.7-.9-7.5-2.8s-2.7-4.4-2.7-7.7.8-6,2.5-7.9c1.7-1.9,4-2.9,6.9-2.9s4.9.8,6.5,2.5,2.4,3.9,2.4,6.8v2.4h-13.8c0,2,.6,3.5,1.6,4.6s2.5,1.6,4.3,1.6,2.4-.1,3.4-.4c1-.2,2.2-.6,3.4-1.1v3.6c-1.1.5-2.1.9-3.2,1.1-1.1.2-2.3.3-3.8.3"/>
      <g>
        <path class="cls-3" d="M59.9,68.2c0-1.5.1-3.2.3-4.8.2-1.6.3-3.3.3-4.9,0-6.1-2.9-8.3-7-8.3h-1.4v4.3h.8c2.4,0,3.3,1.8,3.3,4.8s-.1,2.4-.3,3.8c-.1,1.3-.3,2.8-.3,4.4,0,4.3,1.3,6.2,3.7,6.9h0c-2.4.9-3.8,2.7-3.7,7,0,1.6.1,3,.3,4.4.1,1.3.3,2.6.3,3.8,0,3-.8,4.7-3.3,4.8h-.8v4.3h1.3c4.3,0,7-2.4,7-8.1s-.1-3.3-.3-4.9c-.1-1.6-.3-3.4-.3-4.9s.4-4.3,3.7-4.3v-4c-3.3,0-3.7-2.5-3.7-4.3"/>
        <path class="cls-3" d="M11.3,18.3c1.9,1,4.9,1.5,9.1,1.5h4.3c2.8,0,4.8.4,6,1.3,1,.7,1.8,2,2.5,3.8h1.6s0,0,0,0c.4-1.1.8-1.9,1.2-2.5.5-.7,1.1-1.3,1.9-1.7.8-.4,1.6-.7,2.6-.8h1.4c0-.1,5.7-.1,5.7-.1,4,0,7-.5,8.9-1.5,2.8-1.4,4.4-3.8,5-7.2h-2.6c-.4.6-.9,1.1-1.5,1.6-1.5,1.2-4,1.7-7.7,1.7h-5.1c-3.5,0-6,.6-7.6,1.9-1.3,1-2.3,2.6-2.7,4.7h-.5c-.6-2.8-2.1-4.7-4.5-5.7-1.6-.7-4.2-1-7.7-.9h-3.2c-2.8,0-5.2-.4-7.1-1.3-1-.5-1.7-1.1-2.3-2h-2.4c.6,3.5,2.1,5.9,4.7,7.2"/>
        <polygon class="cls-3" points="34.1 44.5 31.6 39 27.7 39 32.6 49.7 35.6 49.7 40.4 39 36.6 39 34.1 44.5"/>
        <g>
          <path class="cls-3" d="M30.4,29.7c0,3.8-3.1,6.8-6.8,6.8s-6.8-3.1-6.8-6.8,3.1-6.8,6.8-6.8,6.8,3.1,6.8,6.8"/>
          <path class="cls-3" d="M51.4,29.7c0,3.8-3.1,6.8-6.8,6.8s-6.8-3.1-6.8-6.8,3.1-6.8,6.8-6.8,6.8,3.1,6.8,6.8"/>
          <path class="cls-3" d="M23.1,102.9l-.8-1.8c-.9.3-1.7.8-2.3,1.4-.6.6-1,1.2-1.2,1.9s-.3,1.7-.3,3v3.1h4.3v-4.3h-2.1c0-.9.2-1.5.6-2,.4-.5,1-.9,1.8-1.2"/>
          <path class="cls-3" d="M46.6,105.7h2.1c0,.8-.2,1.5-.6,2-.4.5-1,.9-1.8,1.2l.8,1.8c.9-.3,1.7-.8,2.3-1.4.6-.6,1-1.2,1.2-1.9.2-.7.3-1.7.3-3v-3.1h-4.3v4.3Z"/>
          <path class="cls-3" d="M30.3,102.9l-.8-1.8c-.9.3-1.7.8-2.3,1.4-.6.6-1,1.2-1.2,1.9-.2.7-.3,1.7-.3,3v3.1h4.3v-4.3h-2.1c0-.9.2-1.5.6-2,.4-.5,1-.9,1.9-1.2"/>
          <path class="cls-3" d="M39.3,105.7h2.1c0,.8-.2,1.5-.6,2-.4.5-1,.9-1.9,1.2l.8,1.8c.9-.3,1.7-.8,2.3-1.4.6-.6,1-1.2,1.2-1.9.2-.7.3-1.7.3-3v-3.1h-4.3v4.3Z"/>
        </g>
        <polygon class="cls-3" points="29.1 59.1 25.6 59.1 18.1 87.1 21.6 87.1 29.1 59.1"/>
        <polygon class="cls-3" points="49.7 59.1 46.2 59.1 38.7 87.1 42.2 87.1 49.7 59.1"/>
        <polygon class="cls-3" points="35.9 59.1 28.4 87.1 31.9 87.1 39.4 59.1 35.9 59.1"/>
        <path class="cls-3" d="M8.3,58.5c0,1.6.1,3.2.3,4.9.1,1.6.3,3.3.3,4.8s-.4,4.3-3.7,4.3v4c3.3,0,3.7,2.4,3.7,4.3s-.1,3.3-.3,4.9c-.2,1.6-.3,3.4-.3,4.9,0,5.7,2.8,8.1,7,8.1h1.3v-4.3h-.9c-2.4,0-3.3-1.8-3.3-4.8s.1-2.5.3-3.8c.1-1.4.3-2.8.3-4.4,0-4.3-1.3-6.1-3.7-6.9h0c2.4-.9,3.8-2.7,3.7-7,0-1.6-.1-3-.3-4.4-.1-1.4-.3-2.6-.3-3.8,0-3,.9-4.8,3.3-4.8h.8v-4.3h-1.4c-4,0-7,2.2-7,8.3"/>
      </g>
      <g>
        <path class="cls-3" d="M91.7,98.4l-.3,1.6-2.2.4c.2.4.3,1,.3,1.6,0,1.5-.5,2.6-1.3,3.5s-2.1,1.3-3.6,1.3-.7,0-1,0c-.8.3-1.3.7-1.3,1.2s.1.5.4.6c.2.1.6.2,1,.2l1.5.2c1.3.2,2.3.5,2.9,1,.6.5.9,1.2.9,2.1,0,1.5-.6,2.6-1.7,3.5s-2.8,1.2-4.9,1.2-2.7-.3-3.6-.9c-.8-.6-1.3-1.4-1.3-2.3s.3-1.5.8-2c.5-.6,1.4-1,2.5-1.5-.6-.3-.9-.8-.9-1.5s.2-1,.5-1.4c.3-.4.9-.8,1.7-1.1-1-.6-1.5-1.6-1.5-2.9s.5-2.7,1.4-3.6,2.2-1.4,3.7-1.4,1.2,0,1.8.2h4.4ZM82.4,110.8c-.8.1-1.5.4-2,.8s-.7.9-.7,1.5.2.9.6,1.2,1.1.4,1.9.4c1.2,0,2.2-.2,2.9-.6s1-1,1-1.8-.2-.7-.5-.9-.9-.4-1.8-.5l-1.6-.2ZM85.4,100c-.5,0-.9.1-1.3.4s-.7.7-.9,1.2c-.2.5-.3,1.1-.3,1.7s.1,1,.4,1.2.7.4,1.2.4.9-.1,1.3-.4.6-.7.8-1.2.3-1.1.3-1.7c0-1.1-.5-1.6-1.5-1.6Z"/>
        <path class="cls-3" d="M94,111h-2.7l2.7-12.6h2.7l-2.7,12.6Z"/>
        <path class="cls-3" d="M106.3,98.2c.5,0,.9,0,1.2.1l-.6,2.5c-.4-.1-.8-.2-1.2-.2-1,0-1.8.4-2.6,1.3-.8.9-1.3,2-1.6,3.4l-1.2,5.7h-2.7l2.7-12.6h2.1l-.2,2.3h0c.6-.9,1.3-1.6,1.9-2s1.3-.6,2-.6Z"/>
        <path class="cls-3" d="M109.9,111h-2.7l3.8-17.7h2.7l-3.8,17.7Z"/>
        <path class="cls-3" d="M122.1,107.1c0,1.3-.4,2.3-1.3,3-.9.7-2.1,1.1-3.7,1.1s-2.7-.2-3.7-.8v-2.3c1.2.7,2.3,1,3.6,1s1.3-.1,1.8-.5c.5-.3.7-.7.7-1.2s-.1-.7-.4-1-.8-.6-1.6-1.1c-.9-.5-1.6-1-2-1.5s-.6-1.1-.6-1.9c0-1.2.4-2.1,1.2-2.8.8-.7,1.9-1,3.3-1s2.8.3,3.9,1l-.9,2c-1.1-.6-2.1-.9-3-.9s-1,.1-1.3.4c-.3.2-.5.6-.5,1s.1.6.4.9c.2.3.8.6,1.5,1,.8.5,1.4.8,1.7,1.1.3.3.6.7.8,1,.2.4.2.8.2,1.3Z"/>
        <path class="cls-3" d="M142,103.1c0,1.5-.3,2.9-.8,4.2s-1.3,2.2-2.3,2.9-2.1,1-3.3,1-2.6-.4-3.5-1.3-1.3-2-1.3-3.5.3-2.9.8-4.2,1.3-2.2,2.3-2.9c1-.7,2.1-1,3.4-1s2.6.4,3.5,1.3c.8.9,1.3,2.1,1.3,3.6ZM139.3,103c0-.8-.2-1.5-.6-1.9-.4-.5-.9-.7-1.6-.7s-1.3.3-1.9.8-1,1.3-1.3,2.2c-.3.9-.5,1.9-.5,3s.2,1.5.6,1.9c.4.5.9.7,1.7.7s1.3-.3,1.8-.8c.6-.5,1-1.2,1.3-2.2.3-.9.5-2,.5-3.1Z"/>
        <path class="cls-3" d="M151.1,111l1.6-7.6c.1-.7.2-1.2.2-1.5,0-1-.5-1.5-1.5-1.5s-1.1.2-1.6.6-1,1.1-1.4,1.9c-.4.8-.7,1.7-1,2.8l-1.1,5.3h-2.7l2.7-12.6h2.1l-.2,2.3h0c.6-.9,1.3-1.5,1.9-2,.7-.4,1.4-.6,2.2-.6s1.8.3,2.4.9.8,1.4.8,2.5,0,1.2-.3,2.1l-1.6,7.4h-2.7Z"/>
        <path class="cls-3" d="M160,111h-2.7l3.8-17.7h2.7l-3.8,17.7Z"/>
        <path class="cls-3" d="M164.4,98.4h2.6l.7,6c0,.5.1,1.1.2,2,0,.9,0,1.5,0,2.1h0c.6-1.6,1.2-2.8,1.5-3.6l3.3-6.5h2.9l-7.8,14.6c-.7,1.2-1.4,2.2-2.2,2.8s-1.8.9-2.8.9-1.1,0-1.6-.2v-2.1c.6.1,1,.2,1.4.2.6,0,1.1-.2,1.5-.5.5-.3.9-.9,1.4-1.8l.6-1-1.9-12.7Z"/>
        <path class="cls-3" d="M97,87l-.4,3.5,3.6-1,.3,2.4-3.2.2,2.1,2.8-2.2,1.2-1.5-3-1.3,3-2.3-1.1,2.1-2.8-3.2-.2.4-2.4,3.5,1-.4-3.5h2.5Z"/>
      </g>
    </g>
  </g>
</svg>