<?xml version="1.0" encoding="UTF-8"?>
<svg xmlns="http://www.w3.org/2000/svg" version="1.1" viewBox="0 0 70 125">
  <defs>
    <style>
      .cls-1 {
        fill: #FB9400;
      }
    </style>
  </defs>
  <!-- Generator: Adobe Illustrator 28.7.0, SVG Export Plug-In . SVG Version: 1.2.0 Build 136)  -->
  <g>
    <g id="Layer_1">
      <g>
        <path class="cls-1" d="M59.9,68.2c0-1.5,0-3.2.3-4.8.2-1.6.3-3.3.3-4.9,0-6.1-2.9-8.3-7-8.3h-1.4v4.3h.8c2.4,0,3.3,1.8,3.3,4.8s0,2.4-.3,3.8c0,1.3-.3,2.8-.3,4.4,0,4.3,1.3,6.2,3.7,6.9h0c-2.4.9-3.8,2.7-3.7,7,0,1.6,0,3,.3,4.4,0,1.3.3,2.6.3,3.8,0,3-.8,4.7-3.3,4.8h-.8v4.3h1.3c4.3,0,7-2.4,7-8.1s0-3.3-.3-4.9c0-1.6-.3-3.4-.3-4.9s.4-4.3,3.7-4.3v-4c-3.3,0-3.7-2.5-3.7-4.3"/>
        <path class="cls-1" d="M11.3,18.3c1.9,1,4.9,1.5,9.1,1.5h4.3c2.8,0,4.8.4,6,1.3,1,.7,1.8,2,2.5,3.8h1.6c.4-1.1.8-1.9,1.2-2.5.5-.7,1.1-1.3,1.9-1.7s1.6-.7,2.6-.8h1.4c0-.1,5.7-.1,5.7-.1,4,0,7-.5,8.9-1.5,2.8-1.4,4.4-3.8,5-7.2h-2.6c-.4.6-.9,1.1-1.5,1.6-1.5,1.2-4,1.7-7.7,1.7h-5.1c-3.5,0-6,.6-7.6,1.9-1.3,1-2.3,2.6-2.7,4.7h-.5c-.6-2.8-2.1-4.7-4.5-5.7-1.6-.7-4.2-1-7.7-.9h-3.2c-2.8,0-5.2-.4-7.1-1.3-1-.5-1.7-1.1-2.3-2h-2.4c.6,3.5,2.1,5.9,4.7,7.2"/>
        <polygon class="cls-1" points="34.1 44.5 31.6 39 27.7 39 32.6 49.7 35.6 49.7 40.4 39 36.6 39 34.1 44.5"/>
        <g>
          <path class="cls-1" d="M30.4,29.7c0,3.8-3.1,6.8-6.8,6.8s-6.8-3.1-6.8-6.8,3.1-6.8,6.8-6.8,6.8,3.1,6.8,6.8"/>
          <path class="cls-1" d="M51.4,29.7c0,3.8-3.1,6.8-6.8,6.8s-6.8-3.1-6.8-6.8,3.1-6.8,6.8-6.8,6.8,3.1,6.8,6.8"/>
          <path class="cls-1" d="M23.1,102.9l-.8-1.8c-.9.3-1.7.8-2.3,1.4-.6.6-1,1.2-1.2,1.9s-.3,1.7-.3,3v3.1h4.3v-4.3h-2.1c0-.9.2-1.5.6-2s1-.9,1.8-1.2"/>
          <path class="cls-1" d="M46.6,105.7h2.1c0,.8-.2,1.5-.6,2-.4.5-1,.9-1.8,1.2l.8,1.8c.9-.3,1.7-.8,2.3-1.4s1-1.2,1.2-1.9c.2-.7.3-1.7.3-3v-3.1h-4.3v4.3h0Z"/>
          <path class="cls-1" d="M30.3,102.9l-.8-1.8c-.9.3-1.7.8-2.3,1.4-.6.6-1,1.2-1.2,1.9-.2.7-.3,1.7-.3,3v3.1h4.3v-4.3h-2.1c0-.9.2-1.5.6-2s1-.9,1.9-1.2"/>
          <path class="cls-1" d="M39.3,105.7h2.1c0,.8-.2,1.5-.6,2-.4.5-1,.9-1.9,1.2l.8,1.8c.9-.3,1.7-.8,2.3-1.4s1-1.2,1.2-1.9c.2-.7.3-1.7.3-3v-3.1h-4.3v4.3h.1Z"/>
        </g>
        <polygon class="cls-1" points="29.1 59.1 25.6 59.1 18.1 87.1 21.6 87.1 29.1 59.1"/>
        <polygon class="cls-1" points="49.7 59.1 46.2 59.1 38.7 87.1 42.2 87.1 49.7 59.1"/>
        <polygon class="cls-1" points="35.9 59.1 28.4 87.1 31.9 87.1 39.4 59.1 35.9 59.1"/>
        <path class="cls-1" d="M8.3,58.5c0,1.6.1,3.2.3,4.9.1,1.6.3,3.3.3,4.8s-.4,4.3-3.7,4.3v4c3.3,0,3.7,2.4,3.7,4.3s-.1,3.3-.3,4.9-.3,3.4-.3,4.9c0,5.7,2.8,8.1,7,8.1h1.3v-4.3h-.9c-2.4,0-3.3-1.8-3.3-4.8s.1-2.5.3-3.8c.1-1.4.3-2.8.3-4.4,0-4.3-1.3-6.1-3.7-6.9h0c2.4-.9,3.8-2.7,3.7-7,0-1.6-.1-3-.3-4.4-.1-1.4-.3-2.6-.3-3.8,0-3,.9-4.8,3.3-4.8h.8v-4.3h-1.4c-4,0-7,2.2-7,8.3"/>
      </g>
    </g>
  </g>
</svg>
